<svg xmlns="http://www.w3.org/2000/svg" xml:space="preserve" id="Ebene_1" x="0" y="0" style="enable-background:new 0 0 55.4176064 48" version="1.1" viewBox="0 0 55.418 48"><style>.st0{fill:#fff}.st1{fill:url(#SVGID_1_)}.st2{fill:#1d1d1b}</style><path d="M14.167.895h26.829l13.37 23.555-14.263 22.723h-25.01L1.664 23.991z" class="st0"/><linearGradient id="SVGID_1_" x1="37.043" x2="18.375" y1="49.645" y2="-1.645" gradientUnits="userSpaceOnUse"><stop offset=".15" style="stop-color:#33b0c1"/><stop offset=".65" style="stop-color:#edf82d"/><stop offset="1" style="stop-color:#d40074"/></linearGradient><path d="M41.563 0H13.855L0 24l13.855 24h27.708l13.855-24L41.563 0zm-1.405 45.565H15.26L2.81 24 15.26 2.435h24.898l12.449 21.566-12.45 21.564z" class="st1"/><path d="M42.654 25.67h-3.372l3.283-4.72v-.937H37.64v1.2h3.198l-3.287 4.714v.943h5.102v-1.2zm-6.083 0H33.2l3.282-4.72v-.937h-4.924v1.2h3.199l-3.288 4.714v.943h5.102v-1.2zm-6.42-5.657h-1.309v3.245c0 .37.023 1 .07 1.89h-.032l-2.98-5.135h-1.833v6.857h1.3v-3.227c0-.39-.03-1.044-.09-1.96h.042l2.983 5.187h1.847v-6.857zm-11.458 4.005c.488-1.579.783-2.568.887-2.969.025.113.066.266.124.46.058.194.317 1.03.776 2.51h-1.787zm4.198 2.852-2.43-6.885h-1.777l-2.42 6.885h1.567l.497-1.632h2.5l.496 1.632h1.567zm-8.347 1.388c.366-.419.549-1.03.549-1.83v-6.415h-1.454v6.425c0 .422-.069.732-.206.93-.138.2-.366.298-.685.298-.207 0-.435-.03-.685-.093v1.21c.244.069.53.103.859.103.715 0 1.256-.21 1.622-.628" class="st2"/></svg>