<?xml version="1.0" encoding="utf-8"?>
<!-- Generator: Adobe Illustrator 27.0.0, SVG Export Plug-In . SVG Version: 6.00 Build 0)  -->
<svg version="1.1" id="Ebene_1" xmlns="http://www.w3.org/2000/svg" xmlns:xlink="http://www.w3.org/1999/xlink" x="0px" y="0px"
	 viewBox="0 0 55.4176064 48" style="enable-background:new 0 0 55.4176064 48;" xml:space="preserve">
<style type="text/css">
	.st0{fill:#FFFFFF;}
	.st1{fill:url(#SVGID_1_);}
	.st2{fill:#1D1D1B;}
</style>
<polygon class="st0" points="14.1668282,0.8953197 40.9957695,0.8953197 54.3668251,24.4495945 40.1028748,47.173069 
	15.09272,47.173069 1.664021,23.9907818 "/>
<linearGradient id="SVGID_1_" gradientUnits="userSpaceOnUse" x1="37.0427437" y1="49.6453323" x2="18.3745384" y2="-1.6451353">
	<stop  offset="0.15" style="stop-color:#33B0C1"/>
	<stop  offset="0.65" style="stop-color:#EDF82D"/>
	<stop  offset="1" style="stop-color:#D40074"/>
</linearGradient>
<path class="st1" d="M41.5632591,0H13.8545656L0,24.0005474L13.8545656,48h27.7086945l13.8543472-23.9994526L41.5632591,0z
	 M40.1578903,45.5647011H15.2599335L2.8109539,24.0005474L15.2599335,2.4350793h24.8979568l12.4489822,21.5654678
	L40.1578903,45.5647011z"/>
<g>
	<path class="st2" d="M42.654213,25.6691246h-3.3717995l3.2825165-4.7184887v-0.9374752h-4.9241104v1.2005901h3.1986427
		l-3.2879257,4.7130775v0.9428864h5.1026764V25.6691246z M36.5714493,25.6691246h-3.3717995l3.2825127-4.7184887v-0.9374752
		H31.558054v1.2005901h3.1986408l-3.2879238,4.7130775v0.9428864h5.1026783V25.6691246z M30.1504879,20.0131607h-1.308136v3.2453136
		c0,0.3686314,0.0229988,0.9990253,0.0703449,1.8898296h-0.0331421l-2.9781399-5.1351433h-1.8336906v6.856554h1.2993431V23.642664
		c0-0.3902779-0.0297623-1.0436687-0.0892849-1.9601746h0.0419369l2.9828739,5.1872253h1.8478947V20.0131607z
		 M18.6931381,24.0180588c0.4883518-1.5786915,0.7832584-2.5682487,0.8867455-2.9686699
		c0.0250263,0.1122799,0.0662861,0.2658195,0.1244564,0.4599438c0.0574932,0.1934471,0.3165493,1.0301399,0.7758179,2.5087261
		H18.6931381z M22.8908081,26.8697147l-2.4295902-6.8849621h-1.7768726l-2.4201202,6.8849621h1.5665169l0.4971466-1.6321278
		h2.4992561l0.4971466,1.6321278H22.8908081z M14.5441694,28.2576637c0.3659258-0.418684,0.5485506-1.0287876,0.5485506-1.8289547
		v-6.4155483h-1.4535589v6.4250164c0,0.4220676-0.0689917,0.7318535-0.2062988,0.9307117
		c-0.1379833,0.1988583-0.3659267,0.2976112-0.6851816,0.2976112c-0.2062988,0-0.4342422-0.0311146-0.6845055-0.0933418v1.2100601
		c0.2441759,0.0683155,0.5302887,0.1028099,0.8583374,0.1028099C13.6371317,28.8860283,14.1782427,28.6763477,14.5441694,28.2576637
		"/>
</g>
</svg>
